Coordinates
version=1
nRows=8
nColumns=40
inDegrees=yes

Units are S.I. units (second, meters, Newtons, ...)
Angles are in degrees.

endheader
time	pelvis_tilt	pelvis_list	pelvis_rotation	pelvis_tx	pelvis_ty	pelvis_tz	hip_flexion_r	hip_adduction_r	hip_rotation_r	knee_angle_r	knee_angle_r_beta	ankle_angle_r	subtalar_angle_r	mtp_angle_r	hip_flexion_l	hip_adduction_l	hip_rotation_l	knee_angle_l	knee_angle_l_beta	ankle_angle_l	subtalar_angle_l	mtp_angle_l	lumbar_extension	lumbar_bending	lumbar_rotation	arm_flex_r	arm_add_r	arm_rot_r	elbow_flex_r	pro_sup_r	wrist_flex_r	wrist_dev_r	arm_flex_l	arm_add_l	arm_rot_l	elbow_flex_l	pro_sup_l	wrist_flex_l	wrist_dev_l
      0.00000000	    -10.68746936	     -0.07012643	      1.43138269	     -1.49104322	      0.89224642	      1.41577734	      8.96644205	     -4.05363604	    -21.38095196	    -16.08582490	     -0.28075061	     12.08912940	      4.14353735	     -6.12561166	     22.89149109	     -3.60006983	      4.06675983	    -19.68156252	     -0.34350807	      6.25550432	      4.94980816	     -9.83648070	     -2.17904321	      2.25637175	      5.08083206	     13.38727372	    -13.06119609	     20.56388369	     19.45761321	     89.95437384	      0.00000000	      0.00000000	     -4.05587273	     15.48277589	      0.45092172	     11.77245591	     89.95437384	      0.00000000	      0.00000000
      0.01000000	    -10.65473290	     -0.14397680	      1.34068206	     -1.48764400	      0.89159808	      1.41565963	      8.94803153	     -4.00513695	    -21.05550403	    -16.55135240	     -0.28887559	     12.32789761	      3.90100596	     -6.11037770	     22.51674211	     -3.53386687	      4.19143791	    -19.60305921	     -0.34213793	      6.62038530	      4.97798236	     -9.74211416	     -2.07753076	      2.11991830	      5.19340752	     13.46203383	    -12.78498038	     20.72776519	     19.36487901	     89.95437384	      0.00000000	      0.00000000	     -4.42171910	     15.02016326	      0.12292657	     11.17158736	     89.95437384	      0.00000000	      0.00000000
      0.02000000	    -10.49531394	     -0.00802451	      1.01140952	     -1.48385185	      0.89113850	      1.41570801	      8.84310552	     -4.08958364	    -20.09394012	    -17.07804714	     -0.29806815	     12.61783649	      2.91500648	     -5.96371201	     21.78194713	     -3.62540410	      4.43108268	    -19.17846442	     -0.33472735	      7.11375869	      5.03268376	     -9.04778661	     -2.08911703	      1.74608562	      5.49014272	     13.43238506	    -12.63208529	     21.40177994	     19.53287027	     89.95437384	      0.00000000	      0.00000000	     -4.90921626	     14.69360280	     -1.60581112	     10.82013142	     89.95437384	      0.00000000	      0.00000000
      0.03000000	    -10.55071586	     -0.11381828	      1.12447784	     -1.48039384	      0.89040310	      1.41518906	      8.90158528	     -4.03004600	    -19.86011480	    -17.53482650	     -0.30604046	     12.71211073	      2.64038905	     -5.90269421	     21.59083441	     -3.54044777	      4.66829039	    -19.12641518	     -0.33381892	      7.23393619	      5.02808347	     -8.89421496	     -1.89091059	      1.62934102	      5.21229340	     13.46270844	    -12.33352964	     21.45444872	     19.60565843	     89.95437384	      0.00000000	      0.00000000	     -5.37370493	     14.18744311	     -1.87399199	     10.44574352	     89.95437384	      0.00000000	      0.00000000
      0.04000000	    -10.41012113	      0.20323857	      0.97430951	     -1.47703658	      0.89018167	      1.41478819	      9.04464336	     -4.43082549	    -19.09188047	    -18.53107446	     -0.32342826	     13.20049167	      1.62453862	     -5.77941599	     21.10162705	     -3.89075456	      4.74060650	    -19.00733339	     -0.33174055	      7.06472684	      4.97068269	     -8.56317603	     -1.95331100	      1.02839622	      5.24669318	     13.61566471	    -11.99214562	     21.72139225	     19.42404683	     89.95437384	      0.00000000	      0.00000000	     -5.59932479	     13.74546754	     -2.69457518	      9.97436079	     89.95437384	      0.00000000	      0.00000000
      0.05000000	    -10.25167924	      0.45190023	      0.92214527	     -1.47367589	      0.89002985	      1.41439775	      9.07020538	     -4.71046228	    -18.38183628	    -19.30518147	     -0.33693898	     13.42315016	      0.74112662	     -5.63019119	     20.46714017	     -4.19147632	      4.68048561	    -18.56842343	     -0.32408013	      7.24915155	      4.70917302	     -8.37841161	     -2.01475440	      0.53606508	      4.89072189	     13.89599131	    -11.52359199	     22.01458638	     19.21272927	     89.95437384	      0.00000000	      0.00000000	     -6.05239493	     13.30613609	     -3.42019882	      9.79168786	     89.95437384	      0.00000000	      0.00000000
      0.06000000	     -9.93218634	      0.71501978	      0.82163202	     -1.46997103	      0.89041445	      1.41411560	      8.77107246	     -4.76566402	    -16.87333465	    -19.73174773	     -0.34438396	     13.22436536	     -1.94181871	     -4.64895119	     19.56922270	     -4.56722702	      4.39483169	    -18.08200986	     -0.31559061	      7.37488661	      5.49639774	     -7.22471228	     -2.28266007	     -0.01857738	      4.83765231	     13.86612916	    -11.29236865	     22.20201927	     19.50206405	     89.95437384	      0.00000000	      0.00000000	     -6.53056225	     13.22387292	     -6.98476893	     10.11744321	     89.95437384	      0.00000000	      0.00000000
      0.07000000	     -9.95320941	      0.73788772	      0.93636112	     -1.46606356	      0.89031202	      1.41319328	      8.94043114	     -4.90496582	    -16.62484057	    -20.52640888	     -0.35825342	     13.21769873	     -2.33307376	     -4.51926355	     19.16204960	     -4.66728900	      4.40821601	    -17.84339459	     -0.31142599	      7.64366673	      5.14169376	     -7.13192571	     -2.12020596	     -0.31467157	      4.71458986	     13.65518730	    -11.09374299	     22.10675230	     19.64413604	     89.95437384	      0.00000000	      0.00000000	     -6.60530617	     12.69212381	     -7.33947776	      9.77177427	     89.95437384	      0.00000000	      0.00000000
